<?xml version="1.0" encoding="utf-8"?>
<!-- Generator: Adobe Illustrator 22.1.0, SVG Export Plug-In . SVG Version: 6.00 Build 0)  -->
<svg version="1.1" id="Layer_1" xmlns="http://www.w3.org/2000/svg" xmlns:xlink="http://www.w3.org/1999/xlink" x="0px" y="0px"
	 viewBox="0 0 62 78" style="enable-background:new 0 0 62 78;" xml:space="preserve">
<style type="text/css">
	.st0{fill:#810000;}
	.st1{fill:url(#SVGID_1_);}
	.st2{fill:#AD0000;}
	.st3{fill:url(#SVGID_2_);}
</style>
<g id="Layer_2_1_">
	<g id="Layer_1-2">
		<path class="st0" d="M57.5,14.1L36.4,1.6c-3.3-2-7.5-2-10.8,0L4.5,14.1C1.7,15.7,0,18.8,0,21.9v1.2c0,5.6,3,10.7,7.9,13.4L21.7,44
			V26.8c0-2.8,2.2-5,5-5l0,0h8.2c2.8,0,5,2.2,5,5L62,21.9C62,18.8,60.3,15.7,57.5,14.1z"/>
		
			<linearGradient id="SVGID_1_" gradientUnits="userSpaceOnUse" x1="21.168" y1="13.7795" x2="16.486" y2="21.6067" gradientTransform="matrix(1 0 0 1 0 1)">
			<stop  offset="0" style="stop-color:#000000;stop-opacity:0.2"/>
			<stop  offset="0.86" style="stop-color:#700000;stop-opacity:3.000000e-02"/>
			<stop  offset="0.92" style="stop-color:#810000;stop-opacity:0"/>
		</linearGradient>
		<path class="st1" d="M4.8,13.9l17.7,10.3c0.9-1.4,2.5-2.3,4.2-2.3h6.1l1.9-1.6L12.9,9.1L4.8,13.9z"/>
		<path class="st2" d="M57.5,14.1L36.4,1.6c-3.3-2-7.5-2-10.8,0L9.2,11.3L62,41.3V21.9C62,18.8,60.3,15.7,57.5,14.1z"/>
		<path class="st0" d="M4.5,64l21.1,12.4c3.3,2,7.5,2,10.8,0L57.5,64c2.8-1.6,4.5-4.6,4.5-7.8V55c0-5.6-3-10.7-7.9-13.4L40.3,34
			v17.2c0,2.8-2.2,5-5,5l0,0h-8.2c-2.8,0-5-2.2-5-5l0,0L0,56.1C0,59.3,1.7,62.3,4.5,64z"/>
		
			<linearGradient id="SVGID_2_" gradientUnits="userSpaceOnUse" x1="332.1469" y1="1784.0037" x2="327.4649" y2="1791.834" gradientTransform="matrix(-1 0 0 -1 373 1847.34)">
			<stop  offset="0" style="stop-color:#000000;stop-opacity:0.2"/>
			<stop  offset="0.86" style="stop-color:#700000;stop-opacity:3.000000e-02"/>
			<stop  offset="0.92" style="stop-color:#810000;stop-opacity:0"/>
		</linearGradient>
		<path class="st3" d="M57.2,64.1L39.5,54c-0.9,1.4-2.5,2.3-4.2,2.3h-6.1l-1.9,1.6l21.9,11.1L57.2,64.1z"/>
		<path class="st2" d="M4.5,64l21.1,12.4c3.3,2,7.5,2,10.8,0l16.4-9.7L0,36.8v19.3C0,59.3,1.7,62.3,4.5,64z"/>
	</g>
</g>
</svg>
